<?xml version="1.0" standalone="no"?>
<!DOCTYPE svg PUBLIC "-//W3C//DTD SVG 20010904//EN"
 "http://www.w3.org/TR/2001/REC-SVG-20010904/DTD/svg10.dtd">
<svg version="1.0" xmlns="http://www.w3.org/2000/svg"
 width="700.000000pt" height="700.000000pt" viewBox="0 0 700.000000 700.000000"
 preserveAspectRatio="xMidYMid meet">
<metadata>
Created by potrace 1.14, written by Peter Selinger 2001-2017
</metadata>
<g transform="translate(0.000000,700.000000) scale(0.100000,-0.100000)"
fill="#000000" stroke="none">
<path d="M3199 6925 c-2 -2 -35 -6 -74 -10 -38 -3 -86 -8 -105 -10 -99 -14
-117 -16 -140 -20 -14 -2 -45 -7 -70 -11 -24 -3 -48 -7 -51 -10 -4 -2 -24 -6
-45 -10 -108 -17 -468 -123 -569 -169 -16 -7 -64 -27 -105 -45 -105 -44 -302
-148 -417 -221 -108 -68 -327 -230 -413 -306 -533 -470 -909 -1099 -1064
-1781 -22 -94 -31 -151 -63 -362 -4 -25 -8 -916 -10 -1981 l-4 -1935 423 2
c1795 8 3093 16 3147 19 110 6 237 15 257 19 10 2 48 7 84 11 36 4 74 9 85 11
10 2 37 6 60 9 60 9 246 45 280 55 17 5 41 11 55 14 97 16 433 128 580 193
413 182 727 392 1016 678 290 286 491 585 643 950 95 228 182 562 207 793 3
26 8 65 11 87 4 22 8 939 10 2038 l4 1997 -1864 0 c-1026 -1 -1866 -3 -1868
-5z m501 -1588 c14 -2 50 -8 80 -11 30 -4 62 -9 70 -11 8 -2 31 -7 50 -10 274
-44 535 -176 705 -356 193 -205 287 -458 288 -779 0 -204 -29 -356 -99 -505
-27 -60 -105 -185 -134 -216 -118 -128 -204 -198 -325 -264 -38 -21 -72 -40
-73 -41 -4 -2 104 -179 375 -617 45 -72 93 -150 106 -172 13 -22 102 -166 197
-320 210 -340 230 -373 230 -385 0 -6 -261 -10 -698 -10 -653 0 -698 1 -708
18 -6 9 -35 62 -64 117 -29 55 -69 132 -90 170 -21 39 -63 120 -95 180 -32 61
-74 142 -95 180 -21 39 -58 108 -82 155 -25 47 -71 135 -103 195 -33 61 -82
155 -111 210 -37 71 -58 100 -71 100 -17 0 -18 -28 -20 -655 0 -360 -1 -658
-2 -662 -1 -5 -266 -8 -591 -8 l-590 0 0 1856 0 1855 913 -4 c501 -2 923 -7
937 -10z"/>
<path d="M3025 4084 l0 -299 150 -1 c227 0 306 14 397 75 52 36 103 104 114
151 9 45 5 149 -8 193 -17 56 -89 128 -153 152 -41 15 -91 19 -275 22 l-226 5
1 -298z"/>
</g>
</svg>
