<?xml version="1.0" encoding="utf-8"?>
<svg width="100%" height="100%" viewBox="0 0 500 500" version="1.1" style="fill-rule:evenodd;clip-rule:evenodd;stroke-linejoin:round;stroke-miterlimit:2;" xmlns="http://www.w3.org/2000/svg" xmlns:bx="https://boxy-svg.com">
  <defs>
    <linearGradient gradientUnits="userSpaceOnUse" x1="56.653" y1="6.855" x2="56.653" y2="124.724" id="gradient-0" gradientTransform="matrix(0.754081, 0.656782, -0.559306, 0.642164, 53.344177, -14.108898)">
      <stop offset="0" style="stop-color: rgb(0, 5, 162);"/>
      <stop offset="1" style="stop-color: rgb(89, 4, 135);"/>
    </linearGradient>
  </defs>
  <g transform="matrix(4.16667, 0, 0, 4.16667, 0, -23.937523)">
    <g id="Layer1" transform="matrix(1, 0, 0, 1, 1.439998, 0)">
      <g>
        <path d="M -0.214 124.814 L 57.36 124.545 C 90.091 124.545 117.36 103.968 117.36 70.617 L 117.36 6.945 L 57.36 6.945 C 56.659 6.951 55.964 6.967 55.275 6.994 C 20.17 8.372 -0.24 37.285 -0.24 62.781 C -0.24 80.284 -0.214 99.607 -0.216 124.545 L -0.214 124.814 Z M 63.207 97.62 L 51.191 74.897 L 50.572 74.897 L 50.572 97.62 L 30.25 97.62 L 30.25 34.034 L 57.199 34.034 C 60.262 34.034 63.311 34.348 66.344 34.977 C 69.378 35.605 72.088 36.713 74.473 38.3 C 76.859 39.886 78.788 42.012 80.261 44.676 C 81.733 47.341 82.47 50.678 82.47 54.69 C 82.47 58.582 81.527 62.01 79.642 64.973 C 77.757 67.937 75.048 70.227 71.513 71.844 L 86.604 96.3 L 87.323 97.62 L 63.207 97.62 Z M 50.395 60.887 L 54.548 60.887 C 55.255 60.887 56.036 60.827 56.89 60.707 C 57.744 60.588 58.539 60.333 59.275 59.944 C 60.012 59.555 60.63 59.016 61.131 58.327 C 61.632 57.639 61.882 56.726 61.882 55.588 C 61.882 54.451 61.676 53.552 61.264 52.894 C 60.851 52.235 60.321 51.741 59.673 51.412 C 59.025 51.083 58.318 50.873 57.553 50.783 C 56.787 50.693 56.08 50.649 55.432 50.649 L 50.395 50.649 L 50.395 60.887 Z" style="fill: url(#gradient-0);" bx:origin="0.499422 0.5"/>
      </g>
    </g>
  </g>
</svg>